<svg width="58" height="60" viewBox="0 0 58 60" fill="none" xmlns="http://www.w3.org/2000/svg">
<g clip-path="url(#clip0)">
<path d="M31.7108 21.4H42.2812C43.0499 21.4 43.8187 20.8 43.8187 19.8C43.8187 18.8 43.0499 18.4 42.2812 18.4H31.903C31.1343 18.4 30.3655 19 30.3655 20C30.3655 21 30.9421 21.4 31.7108 21.4ZM31.7108 25.8H37.6687C38.4374 25.8 39.2062 25.2 39.2062 24.2C39.2062 23.2 38.6296 22.6 37.6687 22.6H31.7108C30.9421 22.6 30.1733 23.2 30.1733 24.2C30.1733 25.2 30.9421 25.8 31.7108 25.8ZM31.7108 16.8H42.2812C43.0499 16.8 43.8187 16.2 43.8187 15.2C43.8187 14.2 43.0499 13.8 42.2812 13.8H31.903C31.1343 13.8 30.3655 14.4 30.3655 15.4C30.3655 16.4 30.9421 16.8 31.7108 16.8ZM47.4702 1.20001H10.1858C4.80459 1.20001 0.384277 5.80001 0.384277 11.4V36C0.384277 41.6 4.80459 46.2 10.1858 46.2H18.6421L17.6812 55C17.6812 57 19.2187 58.6 21.1405 58.6H36.5155C38.4374 58.6 39.9749 57 39.9749 54.8L39.014 46.2H47.4702C52.8515 46.2 57.2718 41.6 57.2718 36V11.6C57.2718 5.80001 52.8515 1.20001 47.4702 1.20001ZM36.5155 55.8H21.1405C20.7562 55.8 20.564 55.4 20.564 55.4L21.7171 46.4H36.3233L37.4765 55.2C37.0921 55.4 36.8999 55.8 36.5155 55.8ZM54.389 36C54.389 40 51.314 43.2 47.4702 43.2H10.1858C6.34209 43.2 3.26709 40 3.26709 36V11.6C3.26709 7.60001 6.34209 4.40001 10.1858 4.40001H47.4702C51.314 4.40001 54.389 7.60001 54.389 11.6V36ZM48.4312 7.80001H9.2249C8.26397 7.80001 7.6874 8.40001 7.6874 9.40001V34.8C7.6874 35.6 8.26397 36.4 9.2249 36.4H48.6233C49.3921 36.4 50.1608 35.8 50.1608 34.8V9.40001C49.9687 8.40001 49.3921 7.80001 48.4312 7.80001ZM47.0858 33.2H10.5702V10.8H47.0858V33.2ZM16.9124 31.6H29.2124C30.3655 31.6 31.1343 30.6 31.1343 29.6V28.8C31.1343 27.6 29.5968 24.2 26.1374 24C25.753 24 25.3687 24.2 24.9843 24.4C24.5999 24.6 23.4468 25 22.8702 25C22.2937 25 21.1405 24.6 20.7562 24.6C20.3718 24.2 19.9874 24 19.603 24C16.3358 24.2 14.6062 27 14.6062 28.4V29.4C14.9905 30.6 15.7593 31.6 16.9124 31.6ZM19.603 27C20.7562 27.8 22.678 28 23.0624 28C23.4468 28 25.3687 27.8 26.5218 27C27.4827 27.2 27.8671 28 28.0593 28.4H17.8733C17.8733 28.4 18.2577 27.4 19.603 27ZM23.0624 24.2C25.5608 24.2 27.4827 21.6 27.4827 18.6C27.4827 15.6 25.3687 13 23.0624 13C20.564 13 18.6421 15.6 18.6421 18.6C18.4499 21.6 20.564 24.2 23.0624 24.2ZM23.0624 16C23.8312 16 24.5999 17.2 24.5999 18.6C24.5999 20 23.8312 21.2 23.0624 21.2C22.2937 21.2 21.5249 20.2 21.5249 18.6C21.3327 17 22.2937 16 23.0624 16Z" fill="#262324"/>
</g>
<defs>
<clipPath id="clip0">
<rect width="57.6562" height="60" fill="white"/>
</clipPath>
</defs>
</svg>
