<svg width="60" height="60" viewBox="0 0 60 60" fill="none" xmlns="http://www.w3.org/2000/svg">
<path d="M19.2999 43.8064L19.2863 43.7692L19.2698 43.7332L16.3329 37.3194L15.9851 36.5598L15.1758 36.7669L12.8764 37.3552L12.7498 37.3876L12.6358 37.4515L10.7607 38.5013L9.99529 38.9298L10.3204 39.7445L10.7634 40.8546C11.1662 41.9831 10.5833 43.2292 9.47501 43.6492C8.36445 44.0544 7.13185 43.4803 6.72989 42.342L6.7279 42.3365L1.13065 26.7767C1.13039 26.776 1.13013 26.7752 1.12987 26.7745C0.720954 25.6155 1.31034 24.3677 2.41899 23.9615L2.42119 23.9607C3.51889 23.5555 4.75506 24.1279 5.15724 25.2581L5.16025 25.2665L5.16342 25.2749L5.38918 25.875L5.73869 26.8039L6.67024 26.4614L11.3943 24.7243L12.3256 24.3818L11.9903 23.4479L9.8408 17.4601C9.07347 15.3212 10.1645 12.9752 12.2469 12.2012L44.0969 1.25456L44.1074 1.25098L44.1177 1.24717C46.201 0.479438 48.5163 1.56257 49.2808 3.68555L58.7545 30.0352C58.7546 30.0355 58.7547 30.0358 58.7548 30.0361C59.521 32.1748 58.4295 34.5216 56.3475 35.2943L43.5591 39.6903L42.6874 39.99L42.9152 40.8832L44.0274 45.2431C44.0275 45.2435 44.0276 45.2439 44.0277 45.2444C44.3957 46.7051 45.4012 48.4993 47.4971 48.4993H51.2467C53.1736 48.4993 54.7467 46.9258 54.7467 44.999V44.3739C54.7467 43.2014 55.6993 42.2491 56.8717 42.2491C58.0441 42.2491 58.9963 43.2012 58.9963 44.3739V50.6248V56.875C58.9963 58.0478 58.0441 59 56.8717 59C55.6994 59 54.7467 58.0476 54.7467 56.875V56.25C54.7467 54.3231 53.1736 52.7496 51.2467 52.7496H44.06C43.3713 52.7496 42.4528 52.4354 41.6444 51.881C40.8227 51.3174 40.3176 50.648 40.2 50.1015L40.1975 50.0903L40.1949 50.0791L38.4082 42.6167L38.1518 41.5458L37.1105 41.9039L24.4976 46.2409L24.4873 46.2444L24.4772 46.2482C22.3947 47.0151 20.0772 45.9343 19.2999 43.8064ZM43.1228 6.49676C40.8452 6.49676 38.9977 8.34483 38.9977 10.6219C38.9977 12.8994 40.8452 14.747 43.1228 14.747C45.3997 14.747 47.2473 12.8993 47.2473 10.6219C47.2473 8.34494 45.3998 6.49676 43.1228 6.49676Z" stroke="black" stroke-width="2"/>
</svg>
