<svg width="43" height="60" viewBox="0 0 43 60" fill="none" xmlns="http://www.w3.org/2000/svg">
<path fill-rule="evenodd" clip-rule="evenodd" d="M27.7778 0H4.45058C1.99259 0 0 1.99631 0 4.46073V55.5393C0 58.0029 1.97983 60 4.43872 60H37.7835C40.2349 60 42.2222 58.004 42.2222 55.576V16.6667V15.5556L28.8889 0H27.7778ZM26.6667 2.22222H4.43462C3.21275 2.22222 2.22222 3.23392 2.22222 4.43435V55.5657C2.22222 56.7874 3.23269 57.7778 4.44436 57.7778H37.7779C39.0051 57.7778 40 56.789 40 55.5702V17.7778H31.1065C28.6544 17.7778 26.6667 15.8077 26.6667 13.3202V2.22222ZM28.8889 3.33333V13.3138C28.8889 14.5519 29.8903 15.5556 31.1039 15.5556H39.3332L28.8889 3.33333ZM17.7778 24.4444V26.6667H35.5556V24.4444H17.7778ZM6.66667 22.2222V28.8889H13.3333V22.2222H6.66667ZM8.88889 24.4444V26.6667H11.1111V24.4444H8.88889ZM6.66667 33.3333V40H13.3333V33.3333H6.66667ZM8.88889 35.5556V37.7778H11.1111V35.5556H8.88889ZM17.7778 35.5556V37.7778H35.5556V35.5556H17.7778ZM6.66667 44.4444V51.1111H13.3333V44.4444H6.66667ZM8.88889 46.6667V48.8889H11.1111V46.6667H8.88889ZM17.7778 46.6667V48.8889H35.5556V46.6667H17.7778Z" fill="black"/>
</svg>
