<svg width="24" height="25" viewBox="0 0 24 25" fill="none" xmlns="http://www.w3.org/2000/svg">
<path fill-rule="evenodd" clip-rule="evenodd" d="M16.9709 15.2906C17.0829 14.918 17.4765 14.7066 17.8499 14.8184L21.3793 15.8747C21.3861 15.8768 21.3929 15.8789 21.3997 15.8812L21.1764 16.5493C21.3997 15.8812 21.3996 15.8812 21.3997 15.8812L21.4004 15.8814L21.4015 15.8818L21.4049 15.8829L21.416 15.8867L21.4551 15.9001C21.4882 15.9116 21.5348 15.9282 21.5914 15.949C21.7042 15.9904 21.8594 16.05 22.028 16.122C22.1952 16.1935 22.3842 16.281 22.5615 16.3793C22.729 16.4721 22.9294 16.5979 23.0873 16.7555C23.3336 17.0012 23.5506 17.335 23.7049 17.6428C23.848 17.9283 24 18.3149 24 18.6619V22.1944C24 22.3688 24 22.681 23.9462 23.0031C23.894 23.316 23.7732 23.7573 23.4403 24.0895C22.9639 24.5648 22.0818 25 21.1764 25H10.5883C10.5882 25 10.5882 25 10.5882 24.2957C10.5882 23.5915 10.5882 23.5915 10.5883 23.5915H21.1764C21.6829 23.5915 22.2125 23.3225 22.442 23.0936C22.462 23.0736 22.5177 22.9868 22.5537 22.7715C22.5869 22.5725 22.5882 22.3632 22.5882 22.1831V18.6644C22.5882 18.665 22.5882 18.6653 22.5881 18.6654C22.5877 18.6654 22.5846 18.631 22.5608 18.5564C22.5353 18.4765 22.4952 18.3786 22.4421 18.2727C22.3317 18.0523 22.1957 17.8578 22.0891 17.7514C22.0706 17.733 22.0062 17.6827 21.8759 17.6105C21.7554 17.5437 21.6136 17.4772 21.4719 17.4166C21.3317 17.3567 21.2002 17.3062 21.1034 17.2706C21.0552 17.2529 21.0164 17.2391 20.9901 17.23L20.9618 17.2202L17.4442 16.1674C17.0708 16.0557 16.8589 15.6631 16.9709 15.2906ZM10.5882 24.2957L10.5883 23.5915C10.1985 23.5915 9.88232 23.9068 9.88232 24.2957C9.88232 24.6847 10.1985 25 10.5883 25L10.5882 24.2957Z" fill="black"/>
<path fill-rule="evenodd" clip-rule="evenodd" d="M7.02908 15.2906C6.91706 14.918 6.52354 14.7066 6.15014 14.8184L2.62072 15.8747C2.6139 15.8768 2.6071 15.8789 2.60034 15.8812L2.82356 16.5493C2.60034 15.8812 2.60041 15.8812 2.60034 15.8812L2.59962 15.8814L2.59851 15.8818L2.59515 15.8829L2.58396 15.8867L2.54488 15.9001C2.51184 15.9116 2.46523 15.9282 2.40858 15.949C2.29581 15.9904 2.14056 16.05 1.97197 16.122C1.80484 16.1935 1.61576 16.281 1.43847 16.3793C1.27096 16.4721 1.07064 16.5979 0.91266 16.7555C0.66636 17.0012 0.449397 17.335 0.29514 17.6428C0.152034 17.9283 2.95639e-05 18.3149 2.95639e-05 18.6619V22.1944C9.53674e-07 22.3688 -4.673e-05 22.681 0.0537519 23.0031C0.10603 23.316 0.226766 23.7573 0.559718 24.0895C1.03613 24.5648 1.91823 25 2.82356 25H13.4117C13.4118 25 13.4118 25 13.4118 24.2957C13.4118 23.5915 13.4118 23.5915 13.4117 23.5915H2.82356C2.31713 23.5915 1.78746 23.3225 1.55799 23.0936C1.538 23.0736 1.48226 22.9868 1.44631 22.7715C1.41305 22.5725 1.41179 22.3632 1.41179 22.1831V18.6644C1.4118 18.665 1.41181 18.6653 1.41185 18.6654C1.41226 18.6654 1.41541 18.631 1.43923 18.5564C1.4647 18.4765 1.50478 18.3786 1.55786 18.2727C1.66831 18.0523 1.80429 17.8578 1.91093 17.7514C1.92941 17.733 1.9938 17.6827 2.12409 17.6105C2.2446 17.5437 2.38639 17.4772 2.52809 17.4166C2.66833 17.3567 2.79984 17.3062 2.89663 17.2706C2.94475 17.2529 2.98362 17.2391 3.00987 17.23L3.03822 17.2202L6.5558 16.1674C6.92921 16.0557 7.1411 15.6631 7.02908 15.2906ZM13.4118 24.2957L13.4117 23.5915C13.8015 23.5915 14.1177 23.9068 14.1177 24.2957C14.1177 24.6847 13.8015 25 13.4117 25L13.4118 24.2957Z" fill="black"/>
<path d="M5.64709 6.33803C5.64709 2.83763 8.4914 0 12 0C15.5087 0 18.353 2.83763 18.353 6.33803V9.85915C18.353 13.3596 15.5087 16.1972 12 16.1972C8.4914 16.1972 5.64709 13.3596 5.64709 9.85915V6.33803Z" fill="white"/>
<path fill-rule="evenodd" clip-rule="evenodd" d="M16.9412 9.85915V6.33803C16.9412 3.6155 14.729 1.40845 12 1.40845C9.2711 1.40845 7.05886 3.6155 7.05886 6.33803V9.85915C7.05886 12.5817 9.2711 14.7887 12 14.7887C14.729 14.7887 16.9412 12.5817 16.9412 9.85915ZM12 0C8.4914 0 5.64709 2.83763 5.64709 6.33803V9.85915C5.64709 13.3596 8.4914 16.1972 12 16.1972C15.5087 16.1972 18.353 13.3596 18.353 9.85915V6.33803C18.353 2.83763 15.5087 0 12 0Z" fill="black"/>
</svg>
