<svg width="38" height="38" viewBox="0 0 38 38" fill="none" xmlns="http://www.w3.org/2000/svg">
<circle cx="19" cy="19" r="19" fill="#828282"/>
<path d="M3.80005 19H32.3" stroke="white" stroke-width="2"/>
<path d="M35.15 19C35.15 19 30.875 19.475 28.1438 19.5682C25.4125 19.6613 23.0375 19.1863 23.0375 19.1863L23.0375 14.0637C23.0375 14.0637 25.4125 15.4886 28.1438 16.5318C30.875 17.575 35.15 19 35.15 19Z" fill="white"/>
<path d="M35.15 19C35.15 19 30.875 18.525 28.1438 18.4318C25.4125 18.3387 23.0375 18.8137 23.0375 18.8137L23.0375 23.9364C23.0375 23.9364 25.4125 22.5114 28.1438 21.4682C30.875 20.425 35.15 19 35.15 19Z" fill="white"/>
</svg>
