<svg width="38" height="38" viewBox="0 0 38 38" fill="none" xmlns="http://www.w3.org/2000/svg">
<circle cx="19" cy="19" r="19" transform="rotate(180 19 19)" fill="#828282"/>
<path d="M34.2 19L5.69995 19" stroke="white" stroke-width="2"/>
<path d="M2.8501 19C2.8501 19 7.1251 18.525 9.85635 18.4318C12.5876 18.3387 14.9626 18.8136 14.9626 18.8136L14.9626 23.9363C14.9626 23.9363 12.5876 22.5114 9.85635 21.4682C7.1251 20.425 2.8501 19 2.8501 19Z" fill="white"/>
<path d="M2.8501 19C2.8501 19 7.1251 19.475 9.85635 19.5682C12.5876 19.6613 14.9626 19.1863 14.9626 19.1863L14.9626 14.0636C14.9626 14.0636 12.5876 15.4886 9.85635 16.5318C7.1251 17.575 2.8501 19 2.8501 19Z" fill="white"/>
</svg>
