<svg width="16" height="25" viewBox="0 0 16 25" fill="none" xmlns="http://www.w3.org/2000/svg">
<path fill-rule="evenodd" clip-rule="evenodd" d="M11.8692 5.35284C11.8692 2.70102 8.89594 1.01129 6.44687 2.27129L6.05994 2.47036C4.87146 3.08182 4.13069 4.26504 4.13069 5.55191V12.3137C4.13069 12.8227 3.6976 13.2353 3.16337 13.2353C2.62913 13.2353 2.19604 12.8227 2.19604 12.3137V5.55191C2.19604 3.58773 3.3267 1.78177 5.1407 0.848496L5.52763 0.649426C9.26568 -1.27375 13.8039 1.30533 13.8039 5.35284V7.33696C13.8039 7.84595 13.3708 8.25857 12.8366 8.25857C12.3023 8.25857 11.8692 7.84595 11.8692 7.33696V5.35284Z" fill="black"/>
<path d="M0 14.0756C0 11.6623 2.0467 9.70587 4.57143 9.70587H11.4286C13.9533 9.70587 16 11.6623 16 14.0756V20.6302C16 23.0436 13.9533 25 11.4286 25H4.57143C2.0467 25 0 23.0436 0 20.6302V14.0756Z" fill="white"/>
<path fill-rule="evenodd" clip-rule="evenodd" d="M11.4286 10.7983H4.57143C2.67788 10.7983 1.14286 12.2656 1.14286 14.0756V20.6302C1.14286 22.4403 2.67788 23.9076 4.57143 23.9076H11.4286C13.3221 23.9076 14.8571 22.4403 14.8571 20.6302V14.0756C14.8571 12.2656 13.3221 10.7983 11.4286 10.7983ZM4.57143 9.70587C2.0467 9.70587 0 11.6623 0 14.0756V20.6302C0 23.0436 2.0467 25 4.57143 25H11.4286C13.9533 25 16 23.0436 16 20.6302V14.0756C16 11.6623 13.9533 9.70587 11.4286 9.70587H4.57143Z" fill="black"/>
<path d="M6.94108 17.647H7.9999H9.05872L9.41166 21.4706H6.58813L6.94108 17.647Z" fill="white"/>
<path fill-rule="evenodd" clip-rule="evenodd" d="M8.73932 18.0294H7.26048L6.97813 21.0882H9.02167L8.73932 18.0294ZM9.05872 17.647H6.94108L6.58813 21.4706H9.41166L9.05872 17.647Z" fill="black"/>
<path d="M10.6666 15.4412C10.6666 16.8219 9.47268 17.9412 7.99992 17.9412C6.52716 17.9412 5.33325 16.8219 5.33325 15.4412C5.33325 14.0605 6.52716 12.9412 7.99992 12.9412C9.47268 12.9412 10.6666 14.0605 10.6666 15.4412Z" fill="white"/>
<path fill-rule="evenodd" clip-rule="evenodd" d="M7.99992 17.584C9.26228 17.584 10.2856 16.6246 10.2856 15.4412C10.2856 14.2577 9.26228 13.2983 7.99992 13.2983C6.73755 13.2983 5.7142 14.2577 5.7142 15.4412C5.7142 16.6246 6.73755 17.584 7.99992 17.584ZM7.99992 17.9412C9.47268 17.9412 10.6666 16.8219 10.6666 15.4412C10.6666 14.0605 9.47268 12.9412 7.99992 12.9412C6.52716 12.9412 5.33325 14.0605 5.33325 15.4412C5.33325 16.8219 6.52716 17.9412 7.99992 17.9412Z" fill="black"/>
<path d="M7.31362 17.353H7.99989H8.68617L9.09793 20.8824H6.90186L7.31362 17.353Z" fill="white"/>
<path fill-rule="evenodd" clip-rule="evenodd" d="M8.35902 17.7059H7.64077L7.31135 20.5294H8.68844L8.35902 17.7059ZM8.68617 17.353H7.31362L6.90186 20.8824H9.09793L8.68617 17.353Z" fill="white"/>
</svg>
