<svg width="60" height="60" viewBox="0 0 60 60" fill="none" xmlns="http://www.w3.org/2000/svg">
<rect x="1" y="1" width="15.1429" height="58" stroke="black" stroke-width="2"/>
<path d="M5.28564 51.5V49.75H11.8571V51.5H5.28564ZM5.28564 44V42.25H11.8571V44H5.28564ZM5.28564 36.5V34.75H11.8571V36.5H5.28564ZM8.57136 10.25C6.62832 10.25 5.28564 8.89646 5.28564 7.5C5.28564 6.10354 6.62832 4.75 8.57136 4.75C10.5144 4.75 11.8571 6.10354 11.8571 7.5C11.8571 8.89646 10.5144 10.25 8.57136 10.25Z" fill="white" stroke="black" stroke-width="2"/>
<rect x="22.4285" y="1" width="15.1429" height="58" stroke="black" stroke-width="2"/>
<path d="M26.7141 51.5V49.75H33.2855V51.5H26.7141ZM26.7141 44V42.25H33.2855V44H26.7141ZM26.7141 36.5V34.75H33.2855V36.5H26.7141ZM29.9998 10.25C28.0568 10.25 26.7141 8.89646 26.7141 7.5C26.7141 6.10354 28.0568 4.75 29.9998 4.75C31.9429 4.75 33.2855 6.10354 33.2855 7.5C33.2855 8.89646 31.9429 10.25 29.9998 10.25Z" fill="white" stroke="black" stroke-width="2"/>
<rect x="43.8572" y="1" width="15.1429" height="58" stroke="black" stroke-width="2"/>
<path d="M48.1431 51.5V49.75H54.7145V51.5H48.1431ZM48.1431 44V42.25H54.7145V44H48.1431ZM48.1431 36.5V34.75H54.7145V36.5H48.1431ZM51.4288 10.25C49.4857 10.25 48.1431 8.89646 48.1431 7.5C48.1431 6.10354 49.4857 4.75 51.4288 4.75C53.3718 4.75 54.7145 6.10354 54.7145 7.5C54.7145 8.89646 53.3718 10.25 51.4288 10.25Z" fill="white" stroke="black" stroke-width="2"/>
</svg>
