<svg width="25" height="14" viewBox="0 0 25 14" fill="none" xmlns="http://www.w3.org/2000/svg">
<path fill-rule="evenodd" clip-rule="evenodd" d="M15.4197 2.40731C15.996 3.54605 16.1495 5.15219 16.1495 7C16.1495 8.84781 15.996 10.454 15.4197 11.5927C15.1357 12.1539 14.752 12.595 14.2351 12.8985C13.7168 13.2028 13.0434 13.3811 12.1615 13.3811C10.3446 13.3811 7.24197 12.9913 4.6042 11.974C1.93944 10.9463 0.904829 9.34494 0.904829 7C0.904829 4.65506 1.93944 3.05368 4.6042 2.02597C7.24197 1.00866 10.3446 0.618921 12.1615 0.618921C13.0434 0.618921 13.7168 0.797202 14.2351 1.10153C14.752 1.40499 15.1357 1.84611 15.4197 2.40731ZM14.5485 0.567813C13.9147 0.195651 13.1271 0 12.1615 0C10.2835 0 7.10306 0.398873 4.38148 1.4485C1.6869 2.48773 0.285908 4.23161 0.285908 7C0.285908 9.76839 1.6869 11.5123 4.38148 12.5515C7.10306 13.6011 10.2835 14 12.1615 14C13.1271 14 13.9147 13.8043 14.5485 13.4322C15.1838 13.0591 15.6435 12.5212 15.9719 11.8722C16.6206 10.5904 16.7684 8.85128 16.7684 7C16.7684 5.14872 16.6206 3.4096 15.9719 2.12784C15.6435 1.47879 15.1838 0.940849 14.5485 0.567813Z" fill="#424242"/>
<path fill-rule="evenodd" clip-rule="evenodd" d="M12.9643 1.8686C12.9105 2.03081 12.9983 2.20595 13.1605 2.2598C13.5604 2.39254 13.9169 2.6773 14.1829 3.37177C14.4566 4.08623 14.6258 5.21601 14.6258 6.99999C14.6258 8.8686 14.44 10.0183 14.1441 10.7247C13.9982 11.0731 13.8291 11.3048 13.6497 11.4628C13.4713 11.62 13.2691 11.7165 13.0384 11.7752C12.8727 11.8174 12.7726 11.9858 12.8147 12.1514C12.8568 12.3171 13.0253 12.4172 13.1909 12.3751C13.4996 12.2966 13.7947 12.16 14.0589 11.9272C14.3221 11.6952 14.5406 11.3801 14.715 10.9638C15.0597 10.141 15.2448 8.8903 15.2448 6.99999C15.2448 5.19321 15.0757 3.97212 14.7609 3.15036C14.4384 2.30862 13.9562 1.87181 13.3555 1.6724C13.1933 1.61855 13.0182 1.7064 12.9643 1.8686Z" fill="#424242"/>
<path fill-rule="evenodd" clip-rule="evenodd" d="M25 3.23695C25 3.06604 24.8614 2.92749 24.6905 2.92749H18.1537C17.9828 2.92749 17.8442 3.06604 17.8442 3.23695C17.8442 3.40786 17.9828 3.54641 18.1537 3.54641H24.6905C24.8614 3.54641 25 3.40786 25 3.23695Z" fill="#424242"/>
<path fill-rule="evenodd" clip-rule="evenodd" d="M25 5.61256C25 5.44165 24.8614 5.3031 24.6905 5.3031H18.1537C17.9828 5.3031 17.8442 5.44165 17.8442 5.61256C17.8442 5.78347 17.9828 5.92202 18.1537 5.92202H24.6905C24.8614 5.92202 25 5.78347 25 5.61256Z" fill="#424242"/>
<path fill-rule="evenodd" clip-rule="evenodd" d="M25 8.11506C25 7.94415 24.8614 7.8056 24.6905 7.8056H18.1537C17.9828 7.8056 17.8442 7.94415 17.8442 8.11506C17.8442 8.28597 17.9828 8.42452 18.1537 8.42452H24.6905C24.8614 8.42452 25 8.28597 25 8.11506Z" fill="#424242"/>
<path fill-rule="evenodd" clip-rule="evenodd" d="M25 10.763C25 10.5921 24.8614 10.4536 24.6905 10.4536H18.1537C17.9828 10.4536 17.8442 10.5921 17.8442 10.763C17.8442 10.9339 17.9828 11.0725 18.1537 11.0725H24.6905C24.8614 11.0725 25 10.9339 25 10.763Z" fill="#424242"/>
</svg>
