<svg width="200" height="78" viewBox="0 0 200 78" fill="none" xmlns="http://www.w3.org/2000/svg">
<path d="M48.3909 42.8453H34.0632L31.3299 48.958H24.0117L37.7663 20.4322H44.82L58.6187 48.958H51.1242L48.3909 42.8453ZM46.1425 37.8329L41.2491 26.9116L36.3556 37.8329H46.1425Z" fill="black"/>
<path d="M79.077 49.447C75.9322 49.447 73.0814 48.8222 70.5244 47.5725C67.9969 46.2956 65.9983 44.5433 64.5288 42.3156C63.0887 40.0607 62.3687 37.5205 62.3687 34.6951C62.3687 31.8697 63.0887 29.3431 64.5288 27.1154C65.9983 24.8605 67.9969 23.1082 70.5244 21.8585C73.0814 20.5816 75.9469 19.9432 79.121 19.9432C81.7955 19.9432 84.2055 20.3779 86.351 21.2472C88.5259 22.1166 90.3481 23.3663 91.8176 24.9963L87.2327 28.9084C85.146 26.6807 82.5597 25.5668 79.4737 25.5668C77.5634 25.5668 75.8587 25.9608 74.3598 26.7486C72.8609 27.5093 71.6853 28.5824 70.833 29.968C70.0101 31.3535 69.5986 32.9292 69.5986 34.6951C69.5986 36.461 70.0101 38.0367 70.833 39.4222C71.6853 40.8078 72.8609 41.8945 74.3598 42.6823C75.8587 43.443 77.5634 43.8234 79.4737 43.8234C82.5597 43.8234 85.146 42.6959 87.2327 40.441L91.8176 44.3531C90.3481 46.0103 88.5259 47.2736 86.351 48.143C84.1761 49.0123 81.7515 49.447 79.077 49.447Z" fill="black"/>
<path d="M121.961 25.8113H112.086V48.958H105.032V25.8113H95.2011V20.4322H121.961V25.8113Z" fill="black"/>
<path d="M97.1541 65.5573C97.1541 65.7928 97.1345 66.1278 97.0953 66.5625H84.7808C84.9963 67.6311 85.5548 68.4824 86.456 69.1163C87.3769 69.7321 88.5134 70.04 89.8653 70.04C91.5895 70.04 93.0101 69.5147 94.1269 68.4642L96.096 70.5561C95.3907 71.3349 94.4992 71.9236 93.4215 72.322C92.3439 72.7205 91.1291 72.9197 89.7771 72.9197C88.0529 72.9197 86.5344 72.6028 85.2217 71.9688C83.9089 71.3349 82.89 70.4565 82.1651 69.3336C81.4597 68.1926 81.107 66.9066 81.107 65.4758C81.107 64.0631 81.4499 62.7953 82.1357 61.6724C82.8411 60.5314 83.8109 59.6439 85.0453 59.01C86.2797 58.3761 87.6708 58.0591 89.2187 58.0591C90.747 58.0591 92.1088 58.3761 93.304 59.01C94.5187 59.6258 95.4592 60.5042 96.1254 61.6452C96.8112 62.7681 97.1541 64.0722 97.1541 65.5573ZM89.2187 60.7759C88.0431 60.7759 87.0439 61.1019 86.2209 61.7539C85.4176 62.3878 84.9278 63.239 84.7514 64.3076H93.6566C93.4999 63.2572 93.0199 62.4059 92.2165 61.7539C91.4132 61.1019 90.4139 60.7759 89.2187 60.7759Z" fill="black"/>
<path d="M114.654 72.7295L110.627 67.7036L106.571 72.7295H102.515L108.629 65.3672L102.78 58.2221H106.865L110.715 62.9764L114.565 58.2221H118.533L112.655 65.3128L118.798 72.7295H114.654Z" fill="black"/>
<path d="M134.617 58.0591C136.145 58.0591 137.507 58.367 138.702 58.9828C139.917 59.5986 140.867 60.468 141.553 61.5909C142.238 62.7138 142.581 64.0088 142.581 65.4758C142.581 66.9429 142.238 68.2469 141.553 69.3879C140.867 70.5109 139.917 71.3802 138.702 71.996C137.507 72.6118 136.145 72.9197 134.617 72.9197C132.501 72.9197 130.825 72.2677 129.591 70.9637V78H125.917V58.2221H129.415V60.1238C130.022 59.4356 130.767 58.9194 131.648 58.5753C132.55 58.2312 133.539 58.0591 134.617 58.0591ZM134.205 70.0128C135.557 70.0128 136.664 69.5962 137.526 68.7631C138.408 67.93 138.849 66.8342 138.849 65.4758C138.849 64.1175 138.408 63.0217 137.526 62.1886C136.664 61.3554 135.557 60.9389 134.205 60.9389C133.323 60.9389 132.53 61.129 131.825 61.5094C131.119 61.8716 130.561 62.3968 130.149 63.0851C129.738 63.7733 129.532 64.5702 129.532 65.4758C129.532 66.3814 129.738 67.1783 130.149 67.8666C130.561 68.5548 131.119 69.0891 131.825 69.4694C132.53 69.8317 133.323 70.0128 134.205 70.0128Z" fill="black"/>
<path d="M165.228 65.5573C165.228 65.7928 165.208 66.1278 165.169 66.5625H152.855C153.07 67.6311 153.629 68.4824 154.53 69.1163C155.451 69.7321 156.587 70.04 157.939 70.04C159.663 70.04 161.084 69.5147 162.201 68.4642L164.17 70.5561C163.464 71.3349 162.573 71.9236 161.495 72.322C160.418 72.7205 159.203 72.9197 157.851 72.9197C156.127 72.9197 154.608 72.6028 153.295 71.9688C151.983 71.3349 150.964 70.4565 150.239 69.3336C149.534 68.1926 149.181 66.9066 149.181 65.4758C149.181 64.0631 149.524 62.7953 150.209 61.6724C150.915 60.5314 151.885 59.6439 153.119 59.01C154.354 58.3761 155.745 58.0591 157.293 58.0591C158.821 58.0591 160.183 58.3761 161.378 59.01C162.593 59.6258 163.533 60.5042 164.199 61.6452C164.885 62.7681 165.228 64.0722 165.228 65.5573ZM157.293 60.7759C156.117 60.7759 155.118 61.1019 154.295 61.7539C153.491 62.3878 153.002 63.239 152.825 64.3076H161.73C161.574 63.2572 161.094 62.4059 160.29 61.7539C159.487 61.1019 158.488 60.7759 157.293 60.7759Z" fill="black"/>
<path d="M176.663 60.3412C177.721 58.8198 179.582 58.0591 182.247 58.0591V61.292C181.933 61.2377 181.649 61.2105 181.395 61.2105C179.964 61.2105 178.847 61.5999 178.044 62.3787C177.241 63.1394 176.839 64.2442 176.839 65.6932V72.7295H173.165V58.2221H176.663V60.3412Z" fill="black"/>
<path d="M199.78 71.9417C199.349 72.2677 198.82 72.5122 198.193 72.6752C197.586 72.8382 196.939 72.9197 196.253 72.9197C194.529 72.9197 193.197 72.5031 192.256 71.67C191.316 70.8369 190.846 69.6234 190.846 68.0296V61.0475H188.259V58.3308H190.846V55.0164H194.519V58.3308H198.722V61.0475H194.519V67.9481C194.519 68.6544 194.705 69.1978 195.078 69.5781C195.45 69.9403 195.989 70.1215 196.694 70.1215C197.517 70.1215 198.203 69.9222 198.751 69.5238L199.78 71.9417Z" fill="black"/>
<path d="M164.487 5.47122C180.135 5.47122 190.013 19.1479 193.34 24.6205C190.008 30.1027 180.131 43.7698 164.487 43.7698C148.841 43.7698 138.964 30.1724 135.635 24.7224C138.962 19.2184 148.841 5.47122 164.487 5.47122ZM164.487 0C140.811 0 128.974 24.734 128.974 24.734C128.974 24.734 140.811 49.241 164.487 49.241C188.162 49.241 200 24.6205 200 24.6205C200 24.6205 188.162 0 164.487 0Z" fill="black"/>
<path fill-rule="evenodd" clip-rule="evenodd" d="M164.487 23.0198C163.532 23.0198 162.756 23.737 162.756 24.6204C162.756 25.5039 163.532 26.2212 164.487 26.2211C165.443 26.2211 166.219 25.5039 166.219 24.6204C166.219 23.737 165.443 23.0198 164.487 23.0198ZM159.985 24.6204C159.985 22.322 162.001 20.4588 164.487 20.4588C166.974 20.4588 168.989 22.322 168.989 24.6204C168.989 26.9188 166.974 28.782 164.487 28.782C162.001 28.782 159.985 26.9188 159.985 24.6204ZM153.931 30.1262C153.46 29.3648 153.086 28.5451 152.823 27.6811L149.734 27.5015C148.889 27.5015 148.21 26.8739 148.21 26.0931V24.1399C150.449 25.3766 154.035 25.1186 157.341 23.3652C157.258 23.7719 157.215 24.1915 157.215 24.6205C157.215 28.3338 160.47 31.343 164.487 31.343C168.504 31.343 171.76 28.3338 171.76 24.6205C171.76 20.9072 168.504 17.8978 164.487 17.8978C163.86 17.8978 163.251 17.9712 162.67 18.1093C163.488 16.3345 163.506 14.5547 162.53 13.1999C162.203 12.7462 161.786 12.3693 161.297 12.0691L161.37 10.9832C161.37 10.202 162.049 9.57446 162.894 9.57446H166.08C166.925 9.57446 167.604 10.202 167.604 10.9832L167.797 13.8387C168.733 14.082 169.62 14.4278 170.444 14.8628L172.715 12.9421C173.311 12.3916 174.274 12.3916 174.87 12.9421L177.121 15.023C177.716 15.5739 177.716 16.4636 177.121 17.0144L175.043 19.1143C175.514 19.8762 175.888 20.6957 176.151 21.5603L179.24 21.7393C180.085 21.7393 180.764 22.3669 180.764 23.1481V26.0931C180.764 26.8739 180.085 27.5015 179.24 27.5015L176.151 27.6811C175.888 28.5451 175.514 29.3648 175.043 30.1262L177.121 32.2264C177.716 32.7774 177.716 33.6673 177.121 34.2178L174.87 36.2987C174.274 36.849 173.311 36.849 172.715 36.2987L170.444 34.3781C169.62 34.8132 168.733 35.1589 167.797 35.4019L167.604 38.2577C167.604 39.0385 166.925 39.6662 166.08 39.6662H162.894C162.049 39.6662 161.37 39.0385 161.37 38.2577L161.176 35.4019C160.241 35.1589 159.355 34.8132 158.531 34.3781L156.259 36.2987C155.663 36.849 154.7 36.849 154.104 36.2987L151.853 34.2178C151.258 33.6672 151.258 32.7774 151.853 32.2264L153.931 30.1262Z" fill="#AAAAAA"/>
<g opacity="0.8">
<path d="M18.5746 72.7296L18.5158 62.6504L13.2256 70.855H10.6392L5.3784 62.9221V72.7296H0V53.7123H4.7906L12.0206 64.688L19.0742 53.7123H23.8648L23.9236 72.7296H18.5746Z" fill="#7C7C7C"/>
<path d="M50.3203 53.7123L41.5033 72.7296H35.7722L26.9845 53.7123H33.274L38.8582 66.1007L44.5598 53.7123H50.3203Z" fill="#7C7C7C"/>
<path d="M62.8006 63.0036H71.3825V66.9701H62.8006V63.0036Z" fill="#7C7C7C"/>
</g>
</svg>
