<svg width="44" height="43" viewBox="0 0 44 43" fill="none" xmlns="http://www.w3.org/2000/svg">
<path d="M8.96692 0.328245C8.96692 0.146967 8.8202 0 8.63922 0C8.45825 0 8.31152 0.146967 8.31152 0.328245V7.02757C8.31152 7.20885 8.45825 7.35581 8.63922 7.35581C8.8202 7.35581 8.96692 7.20885 8.96692 7.02757V0.328245Z" fill="black"/>
<path d="M35.6891 0.328245C35.6891 0.146967 35.5424 0 35.3614 0C35.1804 0 35.0337 0.146967 35.0337 0.328245V7.02757C35.0337 7.20885 35.1804 7.35581 35.3614 7.35581C35.5424 7.35581 35.6891 7.20885 35.6891 7.02757V0.328245Z" fill="black"/>
<path d="M1.72538 41.7738L1.72536 41.7737C1.27683 41.3245 1 40.7062 1 40.0263V14.072H43V40.0263C43 40.7062 42.7232 41.3245 42.2746 41.7737L42.6285 42.127L42.2746 41.7738C41.8261 42.223 41.2093 42.5 40.5313 42.5H3.46868C2.79072 42.5 2.17388 42.223 1.72538 41.7738ZM19.2392 16.4749H18.7392V16.9749V20.7324V21.2324H19.2392H24.7609H25.2609V20.7324V16.9749V16.4749H24.7609H19.2392ZM32.4423 16.4749H31.9423V16.9749V20.7324V21.2324H32.4423H37.9639H38.4639V20.7324V16.9749V16.4749H37.9639H32.4423ZM6.03627 25.4149H5.53627V25.9149V29.6724V30.1724H6.03627H11.5579H12.0579V29.6724V25.9149V25.4149H11.5579H6.03627ZM19.2392 25.4149H18.7392V25.9149V29.6724V30.1724H19.2392H24.7609H25.2609V29.6724V25.9149V25.4149H24.7609H19.2392ZM32.4423 25.4149H31.9423V25.9149V29.6724V30.1724H32.4423H37.9639H38.4639V29.6724V25.9149V25.4149H37.9639H32.4423ZM6.03627 34.3548H5.53627V34.8548V38.6123V39.1123H6.03627H11.5579H12.0579V38.6123V34.8548V34.3548H11.5579H6.03627ZM19.2392 34.3548H18.7392V34.8548V38.6123V39.1123H19.2392H24.7609H25.2609V38.6123V34.8548V34.3548H24.7609H19.2392ZM32.4423 34.3548H31.9423V34.8548V38.6123V39.1123H32.4423H37.9639H38.4639V38.6123V34.8548V34.3548H37.9639H32.4423Z" fill="white" stroke="black"/>
<path d="M42.2746 4.24765L42.6285 3.89441L42.2746 4.24767C42.7232 4.69693 43 5.31518 43 5.99507V12.4155H1L1.00002 5.99507C1.00002 5.31519 1.27685 4.69693 1.72538 4.24767L1.7254 4.24765C2.17389 3.79838 2.79073 3.52142 3.4687 3.52142H7.15589V7.02759C7.15589 7.84655 7.81932 8.51229 8.63895 8.51229C9.45857 8.51229 10.122 7.84655 10.122 7.02759V3.52142H33.8781V7.02759C33.8781 7.84655 34.5415 8.51229 35.3611 8.51229C36.1808 8.51229 36.8442 7.84655 36.8442 7.02759V3.52142H40.5313C41.2093 3.52142 41.8261 3.79839 42.2746 4.24765Z" fill="white" stroke="black"/>
</svg>
