<svg width="58" height="36" viewBox="0 0 58 36" fill="none" xmlns="http://www.w3.org/2000/svg">
<path d="M54.244 16.1684C54.8837 16.9084 55.3933 17.5359 55.7587 18C55.3933 18.4641 54.8837 19.0916 54.244 19.8316C52.8201 21.479 50.7612 23.6736 48.222 25.8643C43.0971 30.2858 36.2376 34.5 28.822 34.5C21.4063 34.5 14.5469 30.2858 9.42199 25.8643C6.8828 23.6736 4.82383 21.479 3.39996 19.8316C2.7603 19.0916 2.2507 18.4641 1.88523 18C2.2507 17.5359 2.7603 16.9084 3.39996 16.1684C4.82383 14.521 6.8828 12.3264 9.42199 10.1357C14.5469 5.71425 21.4063 1.5 28.822 1.5C36.2376 1.5 43.0971 5.71425 48.222 10.1357C50.7612 12.3264 52.8201 14.521 54.244 16.1684ZM16.5137 18C16.5137 24.7947 22.0249 30.3 28.822 30.3C35.6191 30.3 41.1302 24.7947 41.1302 18C41.1302 11.2053 35.6191 5.7 28.822 5.7C22.0249 5.7 16.5137 11.2053 16.5137 18Z" stroke="black" stroke-width="3"/>
<path d="M28.8218 15.3918C27.3378 15.3918 26.1306 16.5938 26.1306 18.0712C26.1306 19.5486 27.3378 20.7505 28.8218 20.7505C30.3057 20.7505 31.5129 19.5486 31.5129 18.0712C31.5129 16.5938 30.306 15.3918 28.8218 15.3918ZM28.8218 19.8277C27.849 19.8277 27.0576 19.0394 27.0576 18.0712C27.0576 17.1027 27.8487 16.3147 28.8218 16.3147C29.794 16.3147 30.586 17.1024 30.586 18.0712C30.586 19.0391 29.7942 19.8277 28.8218 19.8277Z" fill="black"/>
<path d="M33.8609 12.5344L31.9593 13.628C31.6945 13.4418 31.4129 13.2803 31.1179 13.1446V10.9565H26.5257V13.1446C26.2509 13.2714 25.9862 13.4217 25.7356 13.5935L23.8447 12.4777L21.5039 16.4102L23.3948 17.5256C23.3736 17.718 23.3635 17.8983 23.3635 18.0712C23.3635 18.227 23.3714 18.3855 23.3886 18.5557L21.4856 19.6498L23.7817 23.6085L25.6844 22.5143C25.9497 22.7005 26.2307 22.862 26.5263 22.9977V25.1858H31.1185V22.9977C31.3933 22.871 31.6575 22.7206 31.908 22.5488L33.799 23.6646L36.1398 19.7321L34.2494 18.6167C34.2706 18.4254 34.2807 18.2446 34.2807 18.0712C34.2807 17.9148 34.2728 17.7568 34.2556 17.5866L36.1586 16.4925L33.8609 12.5344ZM33.2521 17.0978L33.2984 17.408C33.3358 17.6599 33.3538 17.8703 33.3538 18.0712C33.3538 18.2875 33.3331 18.5207 33.2905 18.7853L33.2409 19.095L34.8693 20.0556L33.4737 22.4006L31.8453 21.4394L31.5961 21.6329C31.257 21.896 30.8826 22.109 30.4843 22.2654L30.191 22.3805V24.2632H27.4524V22.381L27.1596 22.2654C26.7417 22.1012 26.354 21.8778 26.0064 21.6023L25.7594 21.406L24.1208 22.3482L22.752 19.988L24.3921 19.0448L24.3458 18.7346C24.3084 18.4827 24.2904 18.2723 24.2904 18.0714C24.2904 17.854 24.3106 17.6265 24.3537 17.3562L24.4022 17.047L22.7743 16.087L24.1699 13.742L25.7983 14.7037L26.0475 14.5102C26.3878 14.2466 26.7621 14.0335 27.1599 13.8772L27.4527 13.7621V11.8794H30.1913V13.7616L30.4846 13.8772C30.9015 14.0414 31.2897 14.2648 31.6376 14.5403L31.8851 14.7366L33.5231 13.795L34.8925 16.1545L33.2521 17.0978Z" fill="black"/>
</svg>
