<svg width="58" height="60" viewBox="0 0 58 60" fill="none" xmlns="http://www.w3.org/2000/svg">
<path d="M25.2239 60C18.5356 59.9949 12.1227 57.2277 7.39336 52.3061C2.66403 47.3845 0.00493838 40.7109 0 33.7507C0.00143424 19.2776 11.3118 7.50299 25.2239 7.50299C25.7945 7.50299 26.3417 7.73886 26.7451 8.15872C27.1486 8.57858 27.3752 9.14803 27.3752 9.7418V31.5119H48.2964C48.867 31.5119 49.4142 31.7478 49.8177 32.1677C50.2211 32.5875 50.4478 33.157 50.4478 33.7507C50.4478 48.2239 39.136 60 25.2239 60ZM23.0725 12.0896C12.5438 13.2134 4.30414 22.497 4.3027 33.7463C4.3065 39.5197 6.51178 45.0555 10.4343 49.1384C14.3568 53.2212 19.676 55.5173 25.2239 55.5224C36.0337 55.5224 44.9547 46.9478 46.0346 35.9896H25.2239C24.6533 35.9896 24.1061 35.7537 23.7027 35.3338C23.2992 34.914 23.0725 34.3445 23.0725 33.7507V12.0896Z" fill="black"/>
<path d="M55.5048 29.0896H31.8542C31.2837 29.0896 30.7365 28.8537 30.333 28.4338C29.9295 28.014 29.7029 27.4445 29.7029 26.8507V2.23881C29.7029 1.64504 29.9295 1.07559 30.333 0.655731C30.7365 0.235874 31.2837 0 31.8542 0C46.0818 0 57.6561 12.0463 57.6561 26.8507C57.6561 27.4445 57.4295 28.014 57.026 28.4338C56.6225 28.8537 56.0753 29.0896 55.5048 29.0896ZM34.0056 24.6119H53.2473C52.7443 19.4798 50.5554 14.6854 47.05 11.0378C43.5446 7.39013 38.9373 5.11261 34.0056 4.58955V24.6119Z" fill="black"/>
</svg>
