<svg width="46" height="40" viewBox="0 0 46 40" fill="none" xmlns="http://www.w3.org/2000/svg">
<path d="M23 1C18.3346 1 13.8603 3.00178 10.5613 6.56497C7.26238 10.1282 5.40906 14.9609 5.40906 20V24.2222" stroke="black" stroke-width="2" stroke-linecap="round" stroke-linejoin="round"/>
<path d="M23 39C27.6654 39 32.1397 36.9982 35.4386 33.435C38.7376 29.8718 40.5909 25.0391 40.5909 20V15.7778" stroke="black" stroke-width="2" stroke-linecap="round" stroke-linejoin="round"/>
<path d="M9.31818 22.1111L5.40909 26.3334L1.5 22.1111" stroke="black" stroke-width="2" stroke-linecap="round" stroke-linejoin="round"/>
<path d="M44.4999 17.8889L40.5909 13.6667L36.6818 17.8889" stroke="black" stroke-width="2" stroke-linecap="round" stroke-linejoin="round"/>
<path d="M21.25 9.66172V29.3328C21.25 29.4285 21.1785 29.5 21.0828 29.5H17.1672C17.0741 29.5 17 29.4258 17 29.3328V9.66172C17 9.57414 17.0688 9.5 17.1672 9.5H21.0828C21.1812 9.5 21.25 9.57414 21.25 9.66172Z" stroke="black"/>
<path d="M25.9172 9.5H29.8328C29.9312 9.5 30 9.57414 30 9.66172V29.3328C30 29.4259 29.9258 29.5 29.8328 29.5H25.9172C25.8241 29.5 25.75 29.4258 25.75 29.3328V9.66172C25.75 9.5768 25.8216 9.5 25.9172 9.5Z" stroke="black"/>
</svg>
